<?xml version="1.0" encoding="UTF-8"?>
<svg width="631px" height="323px" viewBox="0 0 631 323" version="1.1" xmlns="http://www.w3.org/2000/svg" xmlns:xlink="http://www.w3.org/1999/xlink">
    <title>bouwtechnokracht</title>
    <defs>
        <polygon id="path-1" points="-5.68434189e-14 4.26325641e-14 140.60071 4.26325641e-14 140.60071 83.027 -5.68434189e-14 83.027"></polygon>
        <polygon id="path-3" points="2.84217094e-14 -4.26325641e-14 431.360921 -4.26325641e-14 431.360921 116.675 2.84217094e-14 116.675"></polygon>
    </defs>
    <g id="Page-1" stroke="none" stroke-width="1" fill="none" fill-rule="evenodd">
        <g id="Desktop-HD" transform="translate(-305.000000, -178.000000)">
            <g id="bouwtechnokracht" transform="translate(305.000000, 178.000000)">
                <path d="M25.48,53.009 L36.024,53.009 C42.466,53.009 46.567,54.326 48.323,56.816 C50.081,59.305 50.959,64.724 50.959,73.216 C50.959,81.272 50.228,86.542 48.616,89.326 C47.152,92.107 43.344,93.425 37.195,93.425 C32.801,93.425 28.848,93.132 25.48,92.4 L25.48,53.009 Z M10.851,109.279 C11.009,109.227 11.17,109.179 11.331,109.137 L32.407,103.612 C33.292,103.351 34.196,103.218 35.099,103.218 C40.413,103.218 44.419,107.582 44.419,113.369 L44.419,115.193 C56.225,114.556 63.547,112.221 68.531,106.751 C74.827,99.868 76.438,90.351 76.438,73.216 C76.438,56.962 74.095,45.834 69.409,39.83 C64.724,33.826 55.792,30.897 42.759,30.897 C37.048,30.897 31.338,31.19 25.48,31.776 L25.48,2.343 C25.48,0.731 24.747,0 23.283,0 L2.197,0 C0.733,0 0,0.731 0,2.343 L0,108.069 C0,110.558 1.172,112.021 3.369,112.314 C4.181,112.448 4.972,112.565 5.773,112.69 C7.025,111.177 8.741,109.981 10.851,109.279 L10.851,109.279 Z" id="Fill-1" fill="#812C7C"></path>
                <path d="M115.393,56.962 C117.151,54.181 120.812,52.862 126.23,52.862 C131.649,52.862 135.308,54.181 136.92,56.816 C138.677,59.598 139.556,65.016 139.556,73.216 C139.556,81.418 138.677,86.835 136.92,89.471 C135.308,92.107 131.649,93.425 126.23,93.425 C120.812,93.425 117.151,92.107 115.393,89.471 C113.783,86.835 112.905,81.418 112.905,73.216 C112.905,65.016 113.783,59.598 115.393,56.962 Z M126.23,115.389 C141.899,115.389 152.295,112.607 157.421,107.044 C162.545,101.479 165.181,90.203 165.181,73.216 C165.181,56.23 162.545,44.954 157.421,39.39 C152.295,33.679 141.899,30.897 126.23,30.897 C110.562,30.897 100.018,33.679 94.893,39.39 C89.768,44.954 87.279,56.23 87.279,73.216 C87.279,90.203 89.768,101.479 94.893,107.044 C100.018,112.607 110.562,115.389 126.23,115.389 L126.23,115.389 Z" id="Fill-2" fill="#812C7C"></path>
                <path d="M226.572,95.46 L247.805,95.46 C249.904,95.46 251.785,96.037 253.336,97.04 L253.336,33.973 C253.336,32.361 252.604,31.629 251.286,31.629 L229.906,31.629 C228.443,31.629 227.71,32.361 227.71,33.973 L227.71,93.425 L217.9,93.425 C211.163,93.571 207.942,92.987 205.745,90.351 C203.989,87.129 203.256,82.297 203.549,71.9 L203.549,33.973 C203.549,32.361 202.816,31.629 201.353,31.629 L180.266,31.629 C178.655,31.629 177.924,32.361 177.924,33.973 L177.924,79.661 C177.924,94.889 179.387,103.09 185.099,108.508 C190.809,113.925 198.717,115.389 213.946,115.389 C214.878,115.389 215.761,115.376 216.67,115.369 L216.67,105.509 C216.67,99.686 220.834,95.46 226.572,95.46" id="Fill-3" fill="#812C7C"></path>
                <path d="M276.036,101.625 C277.061,107.483 279.112,111.289 281.893,112.9 C284.822,114.512 290.093,115.389 297.708,115.389 C307.08,115.389 313.084,114.657 315.572,113.194 C318.209,111.73 320.113,107.921 321.43,101.625 L327.433,73.509 L333.437,101.625 C334.756,107.921 336.659,111.73 339.148,113.194 C341.785,114.657 347.788,115.389 357.013,115.389 C364.629,115.389 369.899,114.512 372.682,112.9 C375.61,111.289 377.661,107.483 378.686,101.625 L391.133,33.679 C391.279,32.361 390.693,31.629 389.376,31.629 L366.825,31.629 C365.8,31.629 365.36,32.361 365.214,33.679 L356.135,92.987 C355.989,94.012 355.402,94.596 354.378,94.596 C353.645,94.596 353.059,94.012 352.914,92.987 L339.588,36.022 C339.295,34.851 338.563,34.266 337.245,34.266 L317.624,34.266 C316.305,34.266 315.572,34.851 315.28,36.022 L301.955,92.987 C301.661,95.182 299.027,95.182 298.733,92.987 L289.655,33.679 C289.362,32.361 288.775,31.629 288.044,31.629 L265.492,31.629 C264.028,31.629 263.443,32.361 263.736,33.679 L276.036,101.625" id="Fill-4" fill="#812C7C"></path>
                <path d="M50.568,194.999 L45.054,194.999 C38.816,194.999 36.785,193.693 36.785,187.745 L36.785,152.927 L49.261,152.927 C50.857,152.927 51.729,152.202 51.729,150.606 L51.729,136.533 C51.729,135.083 50.857,134.357 49.261,134.357 L36.785,134.357 L36.785,113.467 C36.785,111.726 35.915,110.71 34.609,111.145 L21.275,114.64 L13.574,116.658 C12.267,117.093 11.542,117.819 11.542,118.979 L11.542,134.357 L2.837,134.357 C1.241,134.357 0.372,135.083 0.372,136.533 L0.372,150.606 C0.372,152.202 1.241,152.927 2.837,152.927 L11.542,152.927 L11.542,196.885 C11.542,197.316 11.57,197.7 11.58,198.116 L27.319,198.116 C33.071,198.116 37.245,202.354 37.245,208.192 L37.245,216.724 C40.968,216.636 45.384,216.094 50.568,215.164 C52.163,214.874 53.033,213.858 53.033,212.263 L53.033,197.175 C53.033,195.724 52.163,194.999 50.568,194.999" id="Fill-5" fill="#1A1919"></path>
                <path d="M86.684,167.579 C86.684,157.859 90.312,154.813 99.16,154.813 C107.864,154.813 111.058,157.859 111.058,167.579 L86.684,167.579 Z M99.16,133.052 C83.927,133.052 73.773,135.808 68.694,141.466 C63.616,146.979 61.006,158.15 61.006,174.979 C61.006,191.662 63.616,202.832 68.694,208.491 C73.773,214.003 83.927,216.76 99.16,216.76 C111.636,216.76 121.501,216.035 128.756,214.439 C130.062,214.148 130.786,213.278 130.786,211.973 L130.786,197.175 C130.786,195.724 130.062,194.999 128.61,194.999 L101.917,194.999 C95.968,194.999 91.907,194.273 89.875,192.822 C87.99,191.372 86.975,188.036 86.829,182.957 L132.092,182.957 C135.429,182.957 136.445,182.087 136.445,179.04 L136.445,174.543 C136.445,157.859 133.979,146.834 128.901,141.321 C123.968,135.808 114.103,133.052 99.16,133.052 L99.16,133.052 Z" id="Fill-6" fill="#1A1919"></path>
                <path d="M209.263,135.373 C203.026,133.777 194.757,133.052 184.602,133.052 C164.872,133.487 155.587,135.518 150.363,145.818 C147.318,152.637 146.156,160.761 146.156,174.834 C146.156,192.388 147.607,201.527 153.411,208.346 C159.213,214.874 167.918,216.76 184.602,216.76 C194.757,216.76 203.026,216.035 209.263,214.439 C210.859,214.003 211.731,212.988 211.731,211.393 L211.731,197.32 C211.731,195.724 210.859,194.999 209.12,194.999 L184.602,194.999 C179.233,194.999 175.607,193.693 173.865,191.081 C172.27,188.325 171.4,182.957 171.4,174.834 C171.4,166.71 172.27,161.341 173.865,158.73 C175.607,156.118 179.233,154.813 184.602,154.813 L209.12,154.813 C210.859,154.813 211.731,154.088 211.731,152.492 L211.731,138.419 C211.731,136.824 210.859,135.808 209.263,135.373" id="Fill-7" fill="#1A1919"></path>
                <path d="M291.66,139.871 C286.001,134.503 278.169,133.052 263.225,133.052 C258.873,133.052 254.23,133.342 249.443,133.777 L249.443,104.762 C249.443,103.166 248.717,102.441 247.266,102.441 L226.232,102.441 C224.78,102.441 224.055,103.166 224.055,104.762 L224.055,213.713 C224.055,215.31 224.78,216.035 226.232,216.035 L247.412,216.035 C248.862,216.035 249.588,215.31 249.588,213.713 L249.588,154.813 L259.308,154.813 C265.982,154.668 269.173,155.393 271.349,157.859 C273.091,161.051 273.816,165.839 273.525,176.139 L273.525,213.713 C273.525,215.31 274.251,216.035 275.556,216.035 L296.592,216.035 C298.043,216.035 298.769,215.31 298.769,213.713 L298.769,168.305 C298.769,153.217 297.319,145.238 291.66,139.871" id="Fill-8" fill="#1A1919"></path>
                <path d="M335.614,198.116 C336.917,198.116 338.124,198.359 339.235,198.764 L339.235,154.813 L348.955,154.813 C356.063,154.813 358.531,154.668 360.852,158.004 C363.173,161.341 363.173,165.259 363.173,176.139 L363.173,213.713 C363.173,215.31 363.898,216.035 365.205,216.035 L386.239,216.035 C387.689,216.035 388.416,215.31 388.416,213.713 L388.416,168.305 C388.416,153.217 386.966,145.238 381.307,139.871 C375.65,134.503 367.815,133.052 352.872,133.052 C335.318,133.052 322.842,133.922 315.733,135.663 C314.428,135.953 313.702,136.099 313.702,137.839 L313.702,198.156 C313.849,198.15 313.985,198.116 314.134,198.116 L335.614,198.116" id="Fill-9" fill="#1A1919"></path>
                <path d="M428.884,191.081 C427.288,188.471 426.419,183.104 426.419,174.979 C426.419,166.855 427.288,161.487 428.884,158.875 C430.625,156.118 434.252,154.813 439.621,154.813 C444.988,154.813 448.614,156.118 450.21,158.73 C451.951,161.487 452.821,166.855 452.821,174.979 C452.821,183.104 451.951,188.471 450.21,191.081 C448.614,193.693 444.988,194.999 439.621,194.999 C434.252,194.999 430.625,193.693 428.884,191.081 Z M433.537,206.901 C438.745,206.901 442.674,211.101 442.842,216.714 C456.572,216.351 465.803,213.611 470.521,208.491 C475.599,202.979 478.21,191.808 478.21,174.979 C478.21,158.15 475.599,146.979 470.521,141.466 C465.443,135.808 455.142,133.052 439.621,133.052 C424.096,133.052 413.651,135.808 408.573,141.466 C403.497,146.979 401.029,158.15 401.029,174.979 C401.029,191.808 403.497,202.979 408.573,208.491 C409.778,209.8 411.296,210.947 413.102,211.945 L430.837,207.296 C431.724,207.034 432.632,206.901 433.537,206.901 L433.537,206.901 Z" id="Fill-10" fill="#1A1919"></path>
                <g id="Group-14" transform="translate(490.080290, 239.469000)">
                    <mask id="mask-2" fill="white">
                        <use xlink:href="#path-1"></use>
                    </mask>
                    <g id="Clip-12"></g>
                    <path d="M1.85570955,83.027 L27.3347096,83.027 C28.2147096,83.027 28.9457096,82.589 29.6787096,81.563 L85.1767096,2.782 C86.4947096,1.171 86.0557096,4.26325641e-14 84.1517096,4.26325641e-14 L58.5267096,4.26325641e-14 C57.4997096,4.26325641e-14 56.6227096,0.439 55.8907096,1.464 L0.537709552,80.245 C-0.487290448,81.563 -0.0462904482,83.027 1.85570955,83.027" id="Fill-11" fill="#E7792B" mask="url(#mask-2)"></path>
                    <path d="M56.5227096,83.027 L82.0017096,83.027 C82.8817096,83.027 83.6127096,82.589 84.3447096,81.563 L139.84371,2.782 C141.16171,1.171 140.72271,4.26325641e-14 138.81871,4.26325641e-14 L113.19371,4.26325641e-14 C112.16671,4.26325641e-14 111.28971,0.439 110.55771,1.464 L55.2047096,80.245 C54.1797096,81.563 54.6207096,83.027 56.5227096,83.027" id="Fill-13" fill="#E7792B" mask="url(#mask-2)"></path>
                </g>
                <path d="M82.87,317.816 L54.872,271.003 L77.39,240.634 C79.019,238.708 78.575,237.819 76.056,237.819 L52.354,237.819 C51.02,237.819 49.984,238.264 49.243,239.302 L29.54,266.262 L29.54,208.192 C29.54,206.563 28.799,205.821 27.319,205.821 L5.986,205.821 C5.213,205.821 4.652,206.036 4.282,206.461 C3.945,206.85 3.764,207.413 3.764,208.192 L3.764,319.444 C3.764,321.074 4.505,321.815 5.986,321.815 L27.319,321.815 C28.799,321.815 29.54,321.074 29.54,319.444 L29.54,276.781 L54.427,320.186 C55.021,321.223 56.057,321.815 57.687,321.815 L80.353,321.815 C83.464,321.815 84.352,320.482 82.87,317.816" id="Fill-15" fill="#E7792B"></path>
                <g id="Group-22" transform="translate(89.987000, 205.821000)">
                    <mask id="mask-4" fill="white">
                        <use xlink:href="#path-3"></use>
                    </mask>
                    <g id="Clip-17"></g>
                    <path d="M49.627,33.035 C44.146,31.851 37.035,31.257 28.443,31.257 C19.258,31.257 12.148,32.74 7.259,35.85 C2.37,38.961 2.84217094e-14,44.887 2.84217094e-14,53.924 L2.84217094e-14,113.623 C2.84217094e-14,115.253 0.741,115.994 2.222,115.994 L23.702,115.994 C25.184,115.994 25.924,115.253 25.924,113.623 L25.924,60.886 C25.924,54.812 28.294,53.479 34.962,53.479 L49.627,53.479 C51.257,53.479 52.145,52.739 52.145,51.257 L52.145,36.147 C52.145,34.368 51.257,33.332 49.627,33.035" id="Fill-16" fill="#E7792B" mask="url(#mask-4)"></path>
                    <path d="M103.406,94.81 C100.147,95.551 96,95.995 90.814,95.995 C82.667,95.995 80.296,94.366 80.296,88.441 C80.296,82.958 82.518,80.737 89.628,80.737 L103.406,80.737 L103.406,94.81 Z M92.147,31.257 C80.888,31.257 71.26,32.147 63.111,33.777 C61.779,34.073 61.186,34.813 61.186,36.147 L61.186,51.257 C61.186,52.739 61.779,53.479 63.111,53.479 L92.147,53.479 C99.703,53.479 103.406,56.442 103.406,62.219 L103.406,65.182 L87.11,65.33 C75.704,65.33 67.557,66.959 62.52,70.367 C57.482,73.626 54.964,80.292 54.815,90.218 C55.705,105.327 59.112,111.698 68.742,114.661 C72.149,115.549 75.556,116.143 78.666,116.29 C81.926,116.586 86.221,116.735 91.703,116.735 C104.295,116.735 115.553,115.699 125.775,113.623 C128.146,113.032 129.331,111.402 129.331,108.884 L129.331,57.923 C129.331,42.073 124.59,31.406 92.147,31.257 L92.147,31.257 Z" id="Fill-18" fill="#E7792B" mask="url(#mask-4)"></path>
                    <path d="M206.664,94.514 L181.628,94.514 C176.147,94.514 172.443,93.18 170.666,90.514 C169.036,87.7 168.147,82.218 168.147,73.922 C168.147,65.626 169.036,60.145 170.666,57.478 C172.443,54.812 176.147,53.479 181.628,53.479 L206.664,53.479 C208.441,53.479 209.331,52.739 209.331,51.109 L209.331,36.74 C209.331,35.11 208.441,34.073 206.811,33.628 C200.441,31.998 191.997,31.257 181.628,31.257 C161.481,31.702 152,33.777 146.667,44.294 C143.556,51.257 142.371,59.553 142.371,73.922 C142.371,91.848 143.852,101.18 149.778,108.143 C155.703,114.809 164.592,116.735 181.628,116.735 C191.997,116.735 200.441,115.994 206.811,114.365 C208.441,113.919 209.331,112.883 209.331,111.253 L209.331,96.883 C209.331,95.255 208.441,94.514 206.664,94.514" id="Fill-19" fill="#E7792B" mask="url(#mask-4)"></path>
                    <path d="M290.959,38.22 C285.181,32.74 277.182,31.257 261.923,31.257 C257.479,31.257 252.739,31.555 247.851,31.998 L247.851,2.371 C247.851,0.742 247.108,-4.26325641e-14 245.627,-4.26325641e-14 L224.147,-4.26325641e-14 C223.982,-4.26325641e-14 223.861,0.045 223.715,0.064 C222.545,0.211 221.925,0.922 221.925,2.371 L221.925,113.623 C221.925,115.253 222.666,115.994 224.147,115.994 L245.775,115.994 C247.257,115.994 247.998,115.253 247.998,113.623 L247.998,53.479 L257.923,53.479 C264.737,53.33 267.996,54.072 270.22,56.59 C271.997,59.849 272.737,64.738 272.441,75.255 L272.441,113.623 C272.441,115.253 273.182,115.994 274.515,115.994 L295.996,115.994 C297.478,115.994 298.218,115.253 298.218,113.623 L298.218,67.256 C298.218,51.849 296.736,43.702 290.959,38.22" id="Fill-20" fill="#E7792B" mask="url(#mask-4)"></path>
                    <path d="M429.578,33.648 L403.954,33.648 C402.927,33.648 402.05,34.087 401.317,35.112 L359.554,94.553 C359.448,94.545 359.368,94.514 359.256,94.514 L353.625,94.514 C347.255,94.514 345.182,93.18 345.182,87.107 L345.182,51.553 L357.922,51.553 C359.552,51.553 360.439,50.813 360.439,49.183 L360.439,34.813 C360.439,33.332 359.552,32.591 357.922,32.591 L345.182,32.591 L345.182,11.259 C345.182,11.115 345.167,10.983 345.155,10.849 C345.025,9.331 344.185,8.481 342.96,8.888 L337.694,10.268 L321.479,14.519 C320.147,14.962 319.405,15.702 319.405,16.888 L319.405,32.591 L310.517,32.591 C308.887,32.591 307.999,33.332 307.999,34.813 L307.999,49.183 C307.999,50.813 308.887,51.553 310.517,51.553 L319.405,51.553 L319.405,96.44 C319.405,105.921 321.628,111.55 326.961,114.069 C329.774,115.253 332.294,115.994 334.516,116.29 C336.887,116.586 340.294,116.735 344.589,116.735 C345.364,116.735 346.201,116.694 347.043,116.651 C347.125,116.657 347.194,116.675 347.282,116.675 L372.762,116.675 C373.642,116.675 374.373,116.237 375.105,115.211 L430.604,36.43 C431.921,34.819 431.482,33.648 429.578,33.648" id="Fill-21" fill="#E7792B" mask="url(#mask-4)"></path>
                </g>
            </g>
        </g>
    </g>
</svg>